<?xml version="1.0" encoding="UTF-8" standalone="no"?>
<svg xmlns="http://www.w3.org/2000/svg" xml:space="preserve" width="900" height="600">
  <path fill="#FFF" d="M0 .009031h900v600H0v-600z"/>
  <circle cx="450" cy="177.5" r="78" fill="#000095" transform="translate(0 3.409031)"/>
  <path fill="#000095" d="M328.4 145.509031c14.6-53.5 63.6-93 121.6-93s107 39.5 121.6 93c55.4-2.7 108.1 31.7 126.1 86.9 17.9 55.2-4.5 114-50.9 144.4 19.7 51.8 3.2 112.7-43.7 146.7-46.9 34.1-109.8 30.9-153.1-3.8-43.2 34.7-106.1 37.9-153.1 3.8-46.9-34.1-63.4-94.9-43.7-146.7-46.4-30.4-68.8-89.2-50.9-144.4 18-55.2 70.7-89.6 126.1-86.9zm121.6-111c-61.4 0-114 38.8-134.7 93.1-58 2.9-111.1 40.9-130.1 99.3s1.6 120.4 46.9 156.8c-15.2 56.1 4.6 118.3 54.2 154.4 49.7 36.1 115 35.7 163.6 3.9 48.6 31.8 114 32.2 163.6-3.9 49.7-36.1 69.5-98.4 54.2-154.4 45.3-36.4 65.9-98.4 46.9-156.8-19-58.4-72.1-96.5-130.1-99.3-20.5-54.4-73.1-93.1-134.5-93.1z"/>
  <path fill="#FE0000" d="M450 67.509031c-55.5 0-101.7 41.1-109.7 94.3-53.2-8.8-106.5 22.5-123.6 75.2-17.1 52.8 7.6 109.4 55.8 133.5-24.9 47.9-11.6 108.3 33.3 140.9 44.9 32.6 106.4 26.5 144.2-11.8 37.9 38.4 99.4 44.4 144.2 11.8 44.9-32.6 58.1-93 33.3-140.8 48.2-24.1 73-80.8 55.8-133.5-17.1-52.8-70.5-84-123.6-75.2-8-53.4-54.2-94.4-109.7-94.4zm-96 111c0-52.9 43.1-96 96-96s96 43.1 96 96v2.3c.7-.3 1.4-.5 2.2-.7 50.3-16.3 104.6 11.4 121 61.6 16.3 50.3-11.3 104.6-61.6 121-.7.2-1.5.5-2.2.7.5.6.9 1.2 1.4 1.9 31.1 42.8 21.5 103-21.2 134.1-42.8 31.1-103 21.5-134.1-21.2-.5-.6-.9-1.3-1.3-1.9-.4.6-.9 1.3-1.3 1.9-31.1 42.8-91.3 52.3-134.1 21.2-42.8-31.1-52.3-91.3-21.2-134.1.5-.6.9-1.2 1.4-1.9-.7-.2-1.5-.4-2.2-.7-50.3-16.3-78-70.7-61.6-121 16.3-50.3 70.7-78 121-61.6.7.2 1.5.5 2.2.7-.4-.8-.4-1.6-.4-2.3z"/>
  <g fill="#FFF" transform="translate(119.062 -22.495727) scale(.08934)">
    <circle cx="3704.3" cy="2274.6" r="389.3"/>
    <path d="m3704.3 1496 90.7 347.7c-26.5-7.6-60.5-11.3-90.7-11.3s-64.3 3.8-90.7 11.3l90.7-347.7zm136 359.1 253.2-257-94.5 347.7c-45.3-37.8-98.2-71.8-158.7-90.7zm192.8 124.7 347.7-94.5-257 253.2c-18.9-60.4-49.1-113.3-90.7-158.7zm105.8 204.1 347.7 90.7-347.7 94.5c3.8-30.2 7.6-60.5 7.6-94.5 0-30.2-3.8-60.5-7.6-90.7zm-15.1 226.8 257 257-347.7-94.5c41.6-45.4 71.8-102.1 90.7-162.5zm-124.7 192.7 94.5 347.7-253.2-253.2c60.4-18.9 113.3-52.9 158.7-94.5zM3795 2709.3l-90.7 347.7-90.7-347.7c26.5 7.6 60.5 7.6 90.7 7.6s64.2-.1 90.7-7.6zm-226.8-11.4L3315 2951.1l94.5-347.7c45.3 41.6 98.2 75.6 158.7 94.5zm-192.7-124.7-347.7 94.5 257-257c18.8 60.4 49.1 117.1 90.7 162.5zm-105.9-204.1-347.7-94.5 347.7-90.7c-3.8 30.2-7.6 60.5-7.6 90.7.1 34 3.8 64.3 7.6 94.5zm15.1-230.6-257-253.2 347.7 94.5c-41.5 45.4-71.8 98.3-90.7 158.7zm124.8-192.7-94.5-347.7 253.2 257c-60.5 18.9-113.4 52.9-158.7 90.7z"/>
  </g>
  <g stroke-width="1.46987" transform="translate(334.65846 292.6668) scale(.68033)">
    <path fill="#ee334e" d="M152.6 2c-24.4-5.6-57.7.6-89.1 18.7C14.2 49.1-11.8 96.1 5.2 125.6c10.9 18.9 36.8 26 66.9 21.4-13.8-3.2-24.7-10.1-30.8-20.7-17-29.5 9-76.5 58.2-104.9C117.2 11.1 135.6 4.7 152.6 2"/>
    <path fill="#00a651" d="M153 118.5c7.3 23.9 29.3 49.7 60.8 67.8 49.2 28.4 102.9 27.5 120-2 10.9-18.9 4.2-44.9-14.9-68.6 4.1 13.5 3.6 26.4-2.5 37.1-17 29.5-70.8 30.4-120 2-17.8-10.2-32.6-22.9-43.4-36.3"/>
    <path fill="#0081c8" d="M119.7 60.5c-17.1 18.3-28.3 50.2-28.3 86.6 0 56.8 27.6 102.9 61.7 102.9 21.8 0 40.9-18.8 51.9-47.2-9.6 10.3-21.1 16.3-33.4 16.3-34.1 0-61.7-46.1-61.7-102.9-.1-20.5 3.5-39.6 9.8-55.7"/>
  </g>
</svg>